<?xml version="1.0" encoding="UTF-8" standalone="no"?>
<!DOCTYPE svg PUBLIC "-//W3C//DTD SVG 1.1//EN" "http://www.w3.org/Graphics/SVG/1.1/DTD/svg11.dtd">
<svg width="100%" height="100%" viewBox="0 0 402 481" version="1.1" xmlns="http://www.w3.org/2000/svg" xmlns:xlink="http://www.w3.org/1999/xlink" xml:space="preserve" xmlns:serif="http://www.serif.com/" style="fill-rule:evenodd;clip-rule:evenodd;stroke-linecap:round;stroke-linejoin:round;stroke-miterlimit:1.5;">
    <g transform="matrix(1,0,0,1,-299.5,-199.5)">
        <g id="Shield">
            <g>
                <path d="M500,200C434.329,226.546 367.668,226.715 300,200C300.085,499.805 322.19,517.947 340,540C378.616,587.818 453.333,636.667 480,660C487.095,666.208 500,680 500,680C500,680 512.905,666.208 520,660C546.667,636.667 621.444,587.867 660,540C691.204,501.261 700.004,450.176 700,200C629.678,226.586 562.999,226.675 500,200" style="fill:none;stroke:black;stroke-width:1px;"/>
                <path d="M500,215C434.329,241.546 387.668,246.715 320,220C320.085,519.805 332.19,507.947 350,530C388.616,577.818 463.333,626.667 490,650C497.095,656.208 500,660 500,660C500,660 503.905,656.208 511,650C537.667,626.667 611.444,577.867 650,530C681.204,491.261 680.004,470.176 680,220C609.678,246.586 562.999,241.675 500,215Z" style="fill:none;stroke:black;stroke-width:1px;"/>
            </g>
            <path d="M499.996,200.541C434.486,226.969 367.994,227.203 300.5,200.734C300.621,499.55 322.611,517.671 340.389,539.686C378.987,587.482 453.675,636.301 480.329,659.624C486.73,665.225 497.851,676.986 500,679.27C502.149,676.986 513.27,665.225 519.671,659.624C546.325,636.301 621.073,587.53 659.611,539.686C675.168,520.372 685.124,497.974 691.207,449.227C697.294,400.448 699.494,325.347 699.5,200.723C629.367,227.077 562.853,227.099 499.996,200.541Z" style="fill:rgb(247,7,255);"/>
            <path d="M500.195,214.54C563.064,241.159 609.646,246.063 679.823,219.532C679.977,219.474 680.149,219.495 680.284,219.589C680.419,219.682 680.5,219.836 680.5,220C680.502,345.111 680.802,412.939 677.201,454.332C673.588,495.868 666.048,510.874 650.389,530.314C611.815,578.203 538.008,627.032 511.329,650.376C504.246,656.574 500.348,660.359 500.348,660.359C500.246,660.458 500.106,660.509 499.963,660.499C499.821,660.488 499.69,660.417 499.603,660.304C499.603,660.304 496.716,656.541 489.671,650.376C462.992,627.032 388.245,578.154 349.611,530.314C340.663,519.234 333.147,516.674 327.858,479.227C322.594,441.949 319.543,369.943 319.5,220C319.5,219.835 319.582,219.68 319.719,219.587C319.856,219.494 320.03,219.474 320.184,219.535C387.713,246.195 434.277,241.027 499.813,214.536C499.935,214.487 500.073,214.488 500.195,214.54Z"/>
            <path d="M499.996,215.541C434.511,241.984 387.873,247.175 320.5,220.734C320.553,370.097 323.595,441.89 328.849,479.087C334.086,516.175 341.527,518.712 350.389,529.686C388.987,577.482 463.675,626.301 490.329,649.624C496.067,654.644 499.082,658.097 500.047,659.262C501.204,658.157 504.875,654.695 510.671,649.624C537.325,626.301 611.073,577.53 649.611,529.686C665.156,510.387 672.618,495.481 676.205,454.246C679.797,412.947 679.503,345.326 679.5,220.723C609.48,247.05 562.826,242.115 499.996,215.541Z" style="fill:rgb(171,0,177);"/>
        </g>
        <g transform="matrix(1.54052,0,0,1.54052,-277.964,-232.967)">
            <g transform="matrix(0.939693,-0.34202,0.34202,0.939693,-101.705,220.304)">
                <path d="M576.782,350L460,350L460,349.238L470.642,320L587.701,320L576.782,350Z" style="fill:white;"/>
            </g>
            <g transform="matrix(0.547479,-0.199266,0.34202,0.939693,78.713,214.406)">
                <path d="M569.117,350L460,350L460,349.238L478.266,320L587.859,320L569.117,350Z" style="fill:white;"/>
            </g>
            <g transform="matrix(0.939693,-0.34202,0.34202,0.939693,-101.705,339.977)">
                <path d="M576.782,350L460,350L460,349.238L470.642,320L587.701,320L576.782,350Z" style="fill:white;"/>
            </g>
        </g>
    </g>
</svg>
